<svg width="68" height="67" viewBox="0 0 68 67" fill="none" xmlns="http://www.w3.org/2000/svg">
<g filter="url(#filter0_d_134_157)">
<path d="M31.0833 20.2604V29.0104H22.3333V34.8438H31.0833V43.5938H36.9167V34.8438H45.6667V29.0104H36.9167V20.2604H31.0833ZM36.9167 2.90625V11.7438C46.8042 13.1729 54.4167 21.6313 54.4167 31.9271C54.4167 34.5521 53.8917 37.0312 53.0167 39.3354L60.6 43.7979C62.2333 40.1812 63.1667 36.1562 63.1667 31.9271C63.1667 16.8188 51.6458 4.36458 36.9167 2.90625ZM34 52.3438C22.7125 52.3438 13.5833 43.2146 13.5833 31.9271C13.5833 21.6313 21.1958 13.1729 31.0833 11.7438V2.90625C16.325 4.36458 4.83334 16.7896 4.83334 31.9271C4.83334 48.0271 17.8708 61.0938 33.9708 61.0938C43.625 61.0938 52.1708 56.3979 57.4792 49.1646L49.8958 44.7021C46.1625 49.3687 40.4458 52.3438 34 52.3438Z" fill="#0369FF"/>
</g>
<defs>
<filter id="filter0_d_134_157" x="0.833344" y="0.90625" width="66.3333" height="66.1875" filterUnits="userSpaceOnUse" color-interpolation-filters="sRGB">
<feFlood flood-opacity="0" result="BackgroundImageFix"/>
<feColorMatrix in="SourceAlpha" type="matrix" values="0 0 0 0 0 0 0 0 0 0 0 0 0 0 0 0 0 0 127 0" result="hardAlpha"/>
<feOffset dy="2"/>
<feGaussianBlur stdDeviation="2"/>
<feComposite in2="hardAlpha" operator="out"/>
<feColorMatrix type="matrix" values="0 0 0 0 0 0 0 0 0 0 0 0 0 0 0 0 0 0 0.12 0"/>
<feBlend mode="normal" in2="BackgroundImageFix" result="effect1_dropShadow_134_157"/>
<feBlend mode="normal" in="SourceGraphic" in2="effect1_dropShadow_134_157" result="shape"/>
</filter>
</defs>
</svg>
